<svg width="1789" height="462" viewBox="0 0 1789 462" fill="none" xmlns="http://www.w3.org/2000/svg">
<g opacity="0.05">
<mask id="path-1-outside-1_254_1432" maskUnits="userSpaceOnUse" x="0" y="0" width="1789" height="462" fill="black">
<rect fill="white" width="1789" height="462"/>
<path d="M30.1975 120.34H18.6975C17.4708 113.9 16.2442 107 15.0175 99.64C13.7908 92.28 12.7175 84.92 11.7975 77.56C10.8775 70.2 10.1108 63.1467 9.49751 56.4C9.19085 49.6533 9.03751 43.52 9.03751 38H199.478V51.34C184.144 78.6333 171.418 103.78 161.298 126.78C151.178 149.78 142.438 173.087 135.078 196.7C128.024 220.007 121.891 244.847 116.678 271.22C111.464 297.287 106.251 326.88 101.038 360H55.0375C66.3842 315.227 80.4908 270.76 97.3575 226.6C114.224 182.44 133.698 137.973 155.778 93.2L169.578 71.12L145.658 73.42H48.1375L30.1975 120.34ZM434.706 360H335.806V348.5C340.1 346.047 344.853 344.053 350.066 342.52C355.28 340.68 360.646 338.993 366.166 337.46V153C360.646 151.467 355.28 149.933 350.066 148.4C344.853 146.56 340.1 144.413 335.806 141.96V130H434.706V141.96C427.653 146.253 418.606 149.933 407.566 153V233.5H509.686V153C498.953 151.16 489.753 147.48 482.086 141.96V130H581.446V141.96C573.166 147.173 563.046 150.853 551.086 153V337.46C556.606 338.687 561.973 340.067 567.186 341.6C572.4 343.133 577.153 345.433 581.446 348.5V360H482.086V348.5C489.753 342.98 498.953 339.3 509.686 337.46V253.74H407.566V337.46C413.7 338.687 418.913 340.22 423.206 342.06C427.5 343.9 431.333 346.047 434.706 348.5V360ZM609.187 245C609.187 225.68 611.64 208.66 616.547 193.94C621.76 178.913 629.12 166.34 638.627 156.22C648.133 145.793 659.48 137.973 672.667 132.76C686.16 127.24 701.033 124.48 717.287 124.48C736.3 124.48 752.707 127.393 766.507 133.22C780.307 139.047 791.5 147.327 800.087 158.06C808.98 168.487 815.42 181.06 819.407 195.78C823.7 210.5 825.847 226.907 825.847 245C825.847 283.64 816.033 313.387 796.407 334.24C776.78 355.093 750.407 365.52 717.287 365.52C698.887 365.52 682.94 362.76 669.447 357.24C655.953 351.413 644.76 343.287 635.867 332.86C626.973 322.127 620.227 309.4 615.627 294.68C611.333 279.653 609.187 263.093 609.187 245ZM653.347 245C653.347 258.8 654.573 271.833 657.027 284.1C659.787 296.367 663.927 307.1 669.447 316.3C675.273 325.193 682.787 332.247 691.987 337.46C701.187 342.673 712.227 345.28 725.107 345.28C741.667 345.28 755.16 337.153 765.587 320.9C776.32 304.647 781.687 279.347 781.687 245C781.687 230.893 780.307 217.86 777.547 205.9C775.093 193.633 771.107 183.053 765.587 174.16C760.067 164.96 753.013 157.753 744.427 152.54C735.84 147.327 725.567 144.72 713.607 144.72C695.513 144.72 680.947 152.847 669.907 169.1C658.867 185.353 653.347 210.653 653.347 245ZM861.231 197.62C861.231 187.193 862.917 177.687 866.291 169.1C869.664 160.513 874.877 153.153 881.931 147.02C889.291 140.887 898.491 136.133 909.531 132.76C920.877 129.08 934.524 127.24 950.471 127.24C954.151 127.24 959.211 127.393 965.651 127.7C972.397 128.007 979.451 128.313 986.811 128.62C994.171 128.927 1001.22 129.233 1007.97 129.54C1015.02 129.847 1020.54 130 1024.53 130H1057.65V141.96C1055.2 144.107 1051.67 146.1 1047.07 147.94C1042.78 149.78 1036.18 151.467 1027.29 153V337.46C1038.64 340.833 1048.76 344.513 1057.65 348.5V360H958.751V348.5C962.737 346.047 966.877 344.053 971.171 342.52C975.771 340.68 980.677 338.993 985.891 337.46V259.72L952.311 264.32C945.871 275.053 938.664 288.087 930.691 303.42C922.717 318.447 911.831 333.78 898.031 349.42L883.771 360H831.791V348.5L857.551 337.46C871.351 323.047 883.004 308.787 892.511 294.68C902.017 280.573 910.604 268.613 918.271 258.8C911.217 257.573 904.317 255.58 897.571 252.82C890.824 249.753 884.691 245.767 879.171 240.86C873.957 235.647 869.664 229.513 866.291 222.46C862.917 215.407 861.231 207.127 861.231 197.62ZM985.891 150.24C981.904 149.627 976.691 149.013 970.251 148.4C964.117 147.787 958.904 147.48 954.611 147.48C935.597 147.173 922.411 151.62 915.051 160.82C907.997 169.713 904.471 181.52 904.471 196.24C904.471 211.267 909.991 223.687 921.031 233.5C932.377 243.007 949.857 247.76 973.471 247.76H985.891V150.24ZM1085.38 239.48C1085.38 200.227 1088.6 167.413 1095.04 141.04C1101.48 114.36 1111.14 93.0467 1124.02 77.1C1137.2 60.8467 1153.76 49.3466 1173.7 42.6C1193.63 35.8533 1216.94 32.48 1243.62 32.48L1273.52 9.47999H1285.48C1285.17 15 1284.56 20.98 1283.64 27.42C1282.72 33.5533 1281.49 39.5333 1279.96 45.36C1278.73 50.88 1277.35 55.7867 1275.82 60.08C1274.59 64.3733 1273.52 67.44 1272.6 69.28C1244.38 69.28 1220.46 70.66 1200.84 73.42C1181.21 76.18 1164.96 81.8533 1152.08 90.44C1139.2 99.0267 1129.38 111.447 1122.64 127.7C1116.2 143.953 1111.9 165.42 1109.76 192.1H1112.06C1115.74 184.127 1120.64 176.46 1126.78 169.1C1133.22 161.74 1140.42 155.3 1148.4 149.78C1156.68 144.26 1165.42 139.813 1174.62 136.44C1183.82 133.067 1193.17 131.38 1202.68 131.38C1265.24 131.38 1296.52 168.947 1296.52 244.08C1296.52 261.867 1294.06 278.273 1289.16 293.3C1284.25 308.02 1277.04 320.747 1267.54 331.48C1258.03 342.213 1246.53 350.647 1233.04 356.78C1219.54 362.607 1204.36 365.52 1187.5 365.52C1172.16 365.52 1158.21 362.76 1145.64 357.24C1133.06 351.413 1122.33 343.133 1113.44 332.4C1104.54 321.36 1097.64 308.173 1092.74 292.84C1087.83 277.2 1085.38 259.413 1085.38 239.48ZM1128.62 239.48C1128.62 258.8 1130.3 275.207 1133.68 288.7C1137.36 301.887 1142.26 312.773 1148.4 321.36C1154.53 329.64 1161.58 335.773 1169.56 339.76C1177.84 343.44 1186.42 345.28 1195.32 345.28C1213.72 345.28 1227.52 337 1236.72 320.44C1246.22 303.88 1250.98 280.267 1250.98 249.6C1250.98 218.32 1245 195.473 1233.04 181.06C1221.08 166.647 1204.52 159.44 1183.36 159.44C1175.38 159.44 1166.64 161.893 1157.14 166.8C1147.94 171.707 1140.12 178.3 1133.68 186.58C1132.14 194.247 1130.92 202.373 1130 210.96C1129.08 219.24 1128.62 228.747 1128.62 239.48ZM1422.56 452H1320.44V440.5C1330.87 435.593 1340.99 431.913 1350.8 429.46V156.68L1320.44 153V141.04C1330.26 136.747 1340.22 133.373 1350.34 130.92C1360.77 128.16 1370.89 126.013 1380.7 124.48H1392.2V176H1392.66C1398.8 160.36 1407.38 147.94 1418.42 138.74C1429.46 129.233 1443.88 124.48 1461.66 124.48C1488.96 124.48 1510.12 133.527 1525.14 151.62C1540.17 169.713 1547.68 199.153 1547.68 239.94C1547.68 259.26 1545.08 276.74 1539.86 292.38C1534.96 308.02 1527.75 321.207 1518.24 331.94C1509.04 342.673 1497.7 350.953 1484.2 356.78C1471.02 362.607 1456.3 365.52 1440.04 365.52C1428.7 365.52 1419.8 364.753 1413.36 363.22C1406.92 361.993 1399.87 359.693 1392.2 356.32V429.46C1397.11 430.073 1402.02 431.147 1406.92 432.68C1411.83 434.52 1417.04 437.127 1422.56 440.5V452ZM1446.94 153C1431.92 153 1419.96 157.753 1411.06 167.26C1402.17 176.767 1395.88 189.8 1392.2 206.36V335.16C1397.72 338.533 1403.86 341.14 1410.6 342.98C1417.66 344.513 1426.7 345.28 1437.74 345.28C1447.86 345.28 1456.91 342.673 1464.88 337.46C1473.16 332.247 1480.06 324.887 1485.58 315.38C1491.41 305.873 1495.86 294.833 1498.92 282.26C1501.99 269.38 1503.52 255.273 1503.52 239.94C1503.52 227.367 1502.45 215.867 1500.3 205.44C1498.46 194.707 1495.24 185.507 1490.64 177.84C1486.35 169.867 1480.52 163.733 1473.16 159.44C1466.11 155.147 1457.37 153 1446.94 153ZM1583.38 197.62C1583.38 187.193 1585.06 177.687 1588.44 169.1C1591.81 160.513 1597.02 153.153 1604.08 147.02C1611.44 140.887 1620.64 136.133 1631.68 132.76C1643.02 129.08 1656.67 127.24 1672.62 127.24C1676.3 127.24 1681.36 127.393 1687.8 127.7C1694.54 128.007 1701.6 128.313 1708.96 128.62C1716.32 128.927 1723.37 129.233 1730.12 129.54C1737.17 129.847 1742.69 130 1746.68 130H1779.8V141.96C1777.34 144.107 1773.82 146.1 1769.22 147.94C1764.92 149.78 1758.33 151.467 1749.44 153V337.46C1760.78 340.833 1770.9 344.513 1779.8 348.5V360H1680.9V348.5C1684.88 346.047 1689.02 344.053 1693.32 342.52C1697.92 340.68 1702.82 338.993 1708.04 337.46V259.72L1674.46 264.32C1668.02 275.053 1660.81 288.087 1652.84 303.42C1644.86 318.447 1633.98 333.78 1620.18 349.42L1605.92 360H1553.94V348.5L1579.7 337.46C1593.5 323.047 1605.15 308.787 1614.66 294.68C1624.16 280.573 1632.75 268.613 1640.42 258.8C1633.36 257.573 1626.46 255.58 1619.72 252.82C1612.97 249.753 1606.84 245.767 1601.32 240.86C1596.1 235.647 1591.81 229.513 1588.44 222.46C1585.06 215.407 1583.38 207.127 1583.38 197.62ZM1708.04 150.24C1704.05 149.627 1698.84 149.013 1692.4 148.4C1686.26 147.787 1681.05 147.48 1676.76 147.48C1657.74 147.173 1644.56 151.62 1637.2 160.82C1630.14 169.713 1626.62 181.52 1626.62 196.24C1626.62 211.267 1632.14 223.687 1643.18 233.5C1654.52 243.007 1672 247.76 1695.62 247.76H1708.04V150.24Z"/>
</mask>
<path d="M30.1975 120.34V129.356H36.4025L38.6186 123.56L30.1975 120.34ZM18.6975 120.34L9.84112 122.027L11.2371 129.356H18.6975V120.34ZM15.0175 99.64L6.12456 101.122L15.0175 99.64ZM11.7975 77.56L2.85151 78.6782L11.7975 77.56ZM9.49751 56.4L0.491186 56.8094L0.500446 57.0131L0.518913 57.2162L9.49751 56.4ZM9.03751 38V28.9844H0.0218887V38H9.03751ZM199.478 38H208.493V28.9844H199.478V38ZM199.478 51.34L207.338 55.7558L208.493 53.6991V51.34H199.478ZM161.298 126.78L169.55 130.411V130.411L161.298 126.78ZM135.078 196.7L126.47 194.017L126.459 194.053L126.448 194.089L135.078 196.7ZM116.678 271.22L125.518 272.988L125.52 272.978L125.522 272.968L116.678 271.22ZM101.038 360V369.016H108.745L109.943 361.402L101.038 360ZM55.0375 360L46.2982 357.785L43.4521 369.016H55.0375V360ZM97.3575 226.6L88.9353 223.383L97.3575 226.6ZM155.778 93.2L148.132 88.4217L147.892 88.806L147.692 89.2124L155.778 93.2ZM169.578 71.12L177.223 75.8983L186.912 60.396L168.715 62.1458L169.578 71.12ZM145.658 73.42V82.4356H146.09L146.52 82.3942L145.658 73.42ZM48.1375 73.42V64.4044H41.9325L39.7165 70.2002L48.1375 73.42ZM30.1975 120.34V111.324H18.6975V120.34V129.356H30.1975V120.34ZM18.6975 120.34L27.5539 118.653C26.3418 112.29 25.1273 105.459 23.9105 98.1578L15.0175 99.64L6.12456 101.122C7.3611 108.541 8.59985 115.51 9.84112 122.027L18.6975 120.34ZM15.0175 99.64L23.9105 98.1578C22.7038 90.918 21.6482 83.6794 20.7435 76.4417L11.7975 77.56L2.85151 78.6782C3.7868 86.1606 4.87785 93.6419 6.12456 101.122L15.0175 99.64ZM11.7975 77.56L20.7435 76.4417C19.8349 69.1729 19.0795 62.2206 18.4761 55.5838L9.49751 56.4L0.518913 57.2162C1.14223 64.0727 1.92011 71.2271 2.85151 78.6782L11.7975 77.56ZM9.49751 56.4L18.5038 55.9906C18.2021 49.3515 18.0531 43.3574 18.0531 38H9.03751H0.0218887C0.0218887 43.6826 0.179632 49.9551 0.491186 56.8094L9.49751 56.4ZM9.03751 38V47.0156H199.478V38V28.9844H9.03751V38ZM199.478 38H190.462V51.34H199.478H208.493V38H199.478ZM199.478 51.34L191.617 46.9242C176.174 74.4136 163.308 99.8257 153.045 123.149L161.298 126.78L169.55 130.411C179.527 107.734 192.115 82.853 207.338 55.7558L199.478 51.34ZM161.298 126.78L153.045 123.149C142.792 146.453 133.932 170.076 126.47 194.017L135.078 196.7L143.685 199.383C150.943 176.097 159.564 153.107 169.55 130.411L161.298 126.78ZM135.078 196.7L126.448 194.089C119.301 217.707 113.098 242.837 107.833 269.472L116.678 271.22L125.522 272.968C130.684 246.857 136.748 222.307 143.707 199.311L135.078 196.7ZM116.678 271.22L107.837 269.452C102.594 295.667 97.3595 325.386 92.1316 358.598L101.038 360L109.943 361.402C115.142 328.374 120.334 298.907 125.518 272.988L116.678 271.22ZM101.038 360V350.984H55.0375V360V369.016H101.038V360ZM55.0375 360L63.7769 362.215C75.0354 317.789 89.0352 273.657 105.78 229.817L97.3575 226.6L88.9353 223.383C71.9464 267.863 57.733 312.664 46.2982 357.785L55.0375 360ZM97.3575 226.6L105.78 229.817C122.541 185.933 141.901 141.723 163.863 97.1875L155.778 93.2L147.692 89.2124C125.494 134.223 105.907 178.947 88.9353 223.383L97.3575 226.6ZM155.778 93.2L163.423 97.9783L177.223 75.8983L169.578 71.12L161.932 66.3417L148.132 88.4217L155.778 93.2ZM169.578 71.12L168.715 62.1458L144.795 64.4458L145.658 73.42L146.52 82.3942L170.44 80.0942L169.578 71.12ZM145.658 73.42V64.4044H48.1375V73.42V82.4356H145.658V73.42ZM48.1375 73.42L39.7165 70.2002L21.7765 117.12L30.1975 120.34L38.6186 123.56L56.5586 76.6398L48.1375 73.42ZM434.706 360V369.016H443.722V360H434.706ZM335.806 360H326.791V369.016H335.806V360ZM335.806 348.5L331.333 340.672L326.791 343.268V348.5H335.806ZM350.066 342.52L352.61 351.169L352.841 351.102L353.067 351.022L350.066 342.52ZM366.166 337.46L368.579 346.147L375.182 344.313V337.46H366.166ZM366.166 153H375.182V146.147L368.579 144.313L366.166 153ZM350.066 148.4L347.066 156.902L347.292 156.982L347.523 157.049L350.066 148.4ZM335.806 141.96H326.791V147.192L331.333 149.788L335.806 141.96ZM335.806 130V120.984H326.791V130H335.806ZM434.706 130H443.722V120.984H434.706V130ZM434.706 141.96L439.394 149.661L443.722 147.027V141.96H434.706ZM407.566 153L405.153 144.313L398.551 146.147V153H407.566ZM407.566 233.5H398.551V242.516H407.566V233.5ZM509.686 233.5V242.516H518.702V233.5H509.686ZM509.686 153H518.702V145.398L511.21 144.114L509.686 153ZM482.086 141.96H473.071V146.578L476.819 149.276L482.086 141.96ZM482.086 130V120.984H473.071V130H482.086ZM581.446 130H590.462V120.984H581.446V130ZM581.446 141.96L586.25 149.589L590.462 146.937V141.96H581.446ZM551.086 153L549.494 144.126L542.071 145.458V153H551.086ZM551.086 337.46H542.071V344.692L549.131 346.261L551.086 337.46ZM567.186 341.6L569.73 332.951L567.186 341.6ZM581.446 348.5H590.462V343.86L586.687 341.164L581.446 348.5ZM581.446 360V369.016H590.462V360H581.446ZM482.086 360H473.071V369.016H482.086V360ZM482.086 348.5L476.819 341.184L473.071 343.882V348.5H482.086ZM509.686 337.46L511.21 346.346L518.702 345.062V337.46H509.686ZM509.686 253.74H518.702V244.724H509.686V253.74ZM407.566 253.74V244.724H398.551V253.74H407.566ZM407.566 337.46H398.551V344.851L405.798 346.301L407.566 337.46ZM423.206 342.06L426.758 333.773L423.206 342.06ZM434.706 348.5H443.722V343.909L440.009 341.209L434.706 348.5ZM434.706 360V350.984H335.806V360V369.016H434.706V360ZM335.806 360H344.822V348.5H335.806H326.791V360H335.806ZM335.806 348.5L340.279 356.328C343.907 354.255 348.004 352.524 352.61 351.169L350.066 342.52L347.523 333.871C341.702 335.583 336.292 337.839 331.333 340.672L335.806 348.5ZM350.066 342.52L353.067 351.022C358.08 349.252 363.25 347.627 368.579 346.147L366.166 337.46L363.753 328.773C358.043 330.36 352.48 332.108 347.066 334.018L350.066 342.52ZM366.166 337.46H375.182V153H366.166H357.151V337.46H366.166ZM366.166 153L368.579 144.313C363.101 142.791 357.778 141.271 352.61 139.751L350.066 148.4L347.523 157.049C352.782 158.596 358.192 160.142 363.753 161.687L366.166 153ZM350.066 148.4L353.067 139.898C348.305 138.218 344.052 136.288 340.279 134.132L335.806 141.96L331.333 149.788C336.148 152.539 341.401 154.902 347.066 156.902L350.066 148.4ZM335.806 141.96H344.822V130H335.806H326.791V141.96H335.806ZM335.806 130V139.016H434.706V130V120.984H335.806V130ZM434.706 130H425.691V141.96H434.706H443.722V130H434.706ZM434.706 141.96L430.019 134.259C423.889 137.99 415.678 141.39 405.153 144.313L407.566 153L409.979 161.687C421.535 158.477 431.417 154.517 439.394 149.661L434.706 141.96ZM407.566 153H398.551V233.5H407.566H416.582V153H407.566ZM407.566 233.5V242.516H509.686V233.5V224.484H407.566V233.5ZM509.686 233.5H518.702V153H509.686H500.671V233.5H509.686ZM509.686 153L511.21 144.114C501.621 142.47 493.75 139.248 487.354 134.643L482.086 141.96L476.819 149.276C485.756 155.712 496.285 159.85 508.163 161.886L509.686 153ZM482.086 141.96H491.102V130H482.086H473.071V141.96H482.086ZM482.086 130V139.016H581.446V130V120.984H482.086V130ZM581.446 130H572.431V141.96H581.446H590.462V130H581.446ZM581.446 141.96L576.643 134.331C569.549 138.797 560.58 142.136 549.494 144.126L551.086 153L552.679 161.874C565.513 159.57 576.784 155.549 586.25 149.589L581.446 141.96ZM551.086 153H542.071V337.46H551.086H560.102V153H551.086ZM551.086 337.46L549.131 346.261C554.461 347.445 559.631 348.775 564.643 350.249L567.186 341.6L569.73 332.951C564.315 331.358 558.752 329.928 553.042 328.659L551.086 337.46ZM567.186 341.6L564.643 350.249C568.919 351.507 572.757 353.372 576.206 355.836L581.446 348.5L586.687 341.164C581.55 337.494 575.88 334.759 569.73 332.951L567.186 341.6ZM581.446 348.5H572.431V360H581.446H590.462V348.5H581.446ZM581.446 360V350.984H482.086V360V369.016H581.446V360ZM482.086 360H491.102V348.5H482.086H473.071V360H482.086ZM482.086 348.5L487.354 355.816C493.75 351.212 501.621 347.99 511.21 346.346L509.686 337.46L508.163 328.574C496.285 330.61 485.756 334.748 476.819 341.184L482.086 348.5ZM509.686 337.46H518.702V253.74H509.686H500.671V337.46H509.686ZM509.686 253.74V244.724H407.566V253.74V262.756H509.686V253.74ZM407.566 253.74H398.551V337.46H407.566H416.582V253.74H407.566ZM407.566 337.46L405.798 346.301C411.511 347.443 416.091 348.819 419.655 350.347L423.206 342.06L426.758 333.773C421.735 331.621 415.888 329.93 409.335 328.619L407.566 337.46ZM423.206 342.06L419.655 350.347C423.402 351.952 426.636 353.778 429.404 355.791L434.706 348.5L440.009 341.209C436.031 338.315 431.598 335.848 426.758 333.773L423.206 342.06ZM434.706 348.5H425.691V360H434.706H443.722V348.5H434.706ZM616.547 193.94L608.029 190.985L608.011 191.037L607.994 191.089L616.547 193.94ZM638.627 156.22L645.198 162.393L645.244 162.344L645.289 162.294L638.627 156.22ZM672.667 132.76L675.981 141.144L676.031 141.125L676.08 141.104L672.667 132.76ZM766.507 133.22L763 141.526V141.526L766.507 133.22ZM800.087 158.06L793.047 163.692L793.135 163.803L793.227 163.911L800.087 158.06ZM819.407 195.78L810.704 198.137L810.727 198.221L810.752 198.304L819.407 195.78ZM796.407 334.24L802.972 340.419L796.407 334.24ZM669.447 357.24L665.872 365.517L665.952 365.551L666.033 365.584L669.447 357.24ZM635.867 332.86L628.924 338.612L628.965 338.662L629.007 338.711L635.867 332.86ZM615.627 294.68L606.958 297.157L606.988 297.263L607.021 297.369L615.627 294.68ZM657.027 284.1L648.186 285.868L648.207 285.974L648.231 286.079L657.027 284.1ZM669.447 316.3L661.716 320.939L661.808 321.092L661.905 321.241L669.447 316.3ZM691.987 337.46L696.431 329.616L691.987 337.46ZM765.587 320.9L758.063 315.932L758.03 315.982L757.998 316.032L765.587 320.9ZM777.547 205.9L768.706 207.668L768.732 207.798L768.762 207.927L777.547 205.9ZM765.587 174.16L757.856 178.798L757.891 178.857L757.927 178.914L765.587 174.16ZM744.427 152.54L749.106 144.834L744.427 152.54ZM609.187 245H618.202C618.202 226.421 620.564 210.398 625.1 196.791L616.547 193.94L607.994 191.089C602.716 206.922 600.171 224.939 600.171 245H609.187ZM616.547 193.94L625.064 196.895C629.922 182.892 636.676 171.464 645.198 162.393L638.627 156.22L632.056 150.047C621.564 161.216 613.598 174.934 608.029 190.985L616.547 193.94ZM638.627 156.22L645.289 162.294C653.865 152.888 664.065 145.855 675.981 141.144L672.667 132.76L669.352 124.376C654.895 130.091 642.401 138.699 631.964 150.146L638.627 156.22ZM672.667 132.76L676.08 141.104C688.372 136.076 702.07 133.496 717.287 133.496V124.48V115.464C699.997 115.464 683.948 118.404 669.253 124.416L672.667 132.76ZM717.287 124.48V133.496C735.407 133.496 750.565 136.275 763 141.526L766.507 133.22L770.013 124.914C754.848 118.511 737.193 115.464 717.287 115.464V124.48ZM766.507 133.22L763 141.526C775.545 146.823 785.479 154.233 793.047 163.692L800.087 158.06L807.127 152.428C797.52 140.42 785.068 131.271 770.013 124.914L766.507 133.22ZM800.087 158.06L793.227 163.911C801.162 173.214 807.027 184.557 810.704 198.137L819.407 195.78L828.109 193.423C823.813 177.563 816.798 163.759 806.946 152.209L800.087 158.06ZM819.407 195.78L810.752 198.304C814.767 212.072 816.831 227.612 816.831 245H825.847H834.862C834.862 226.202 832.633 208.928 828.062 193.256L819.407 195.78ZM825.847 245H816.831C816.831 282.161 807.411 309.393 789.841 328.061L796.407 334.24L802.972 340.419C824.655 317.38 834.862 285.119 834.862 245H825.847ZM796.407 334.24L789.841 328.061C772.19 346.816 748.346 356.504 717.287 356.504V365.52V374.536C752.467 374.536 781.37 363.371 802.972 340.419L796.407 334.24ZM717.287 365.52V356.504C699.762 356.504 685.027 353.873 672.86 348.896L669.447 357.24L666.033 365.584C680.853 371.647 698.011 374.536 717.287 374.536V365.52ZM669.447 357.24L673.021 348.963C660.7 343.643 650.66 336.312 642.726 327.009L635.867 332.86L629.007 338.711C638.86 350.262 651.207 359.184 665.872 365.517L669.447 357.24ZM635.867 332.86L642.809 327.108C634.74 317.369 628.519 305.711 624.232 291.991L615.627 294.68L607.021 297.369C611.934 313.089 619.207 326.884 628.924 338.612L635.867 332.86ZM615.627 294.68L624.295 292.203C620.265 278.097 618.202 262.384 618.202 245H609.187H600.171C600.171 263.802 602.401 281.21 606.958 297.157L615.627 294.68ZM653.347 245H644.331C644.331 259.334 645.605 272.963 648.186 285.868L657.027 284.1L665.867 282.332C663.542 270.703 662.362 258.266 662.362 245H653.347ZM657.027 284.1L648.231 286.079C651.166 299.126 655.625 310.787 661.716 320.939L669.447 316.3L677.177 311.661C672.229 303.413 668.407 293.607 665.822 282.121L657.027 284.1ZM669.447 316.3L661.905 321.241C668.514 331.328 677.086 339.379 687.542 345.304L691.987 337.46L696.431 329.616C688.487 325.114 682.033 319.059 676.988 311.359L669.447 316.3ZM691.987 337.46L687.542 345.304C698.364 351.436 711.007 354.296 725.107 354.296V345.28V336.264C713.447 336.264 704.01 333.91 696.431 329.616L691.987 337.46ZM725.107 345.28V354.296C745.289 354.296 761.412 344.105 773.175 325.768L765.587 320.9L757.998 316.032C748.908 330.202 738.044 336.264 725.107 336.264V345.28ZM765.587 320.9L773.11 325.868C785.31 307.394 790.702 279.932 790.702 245H781.687H772.671C772.671 278.761 767.33 301.899 758.063 315.932L765.587 320.9ZM781.687 245H790.702C790.702 230.31 789.266 216.588 786.331 203.873L777.547 205.9L768.762 207.927C771.348 219.132 772.671 231.477 772.671 245H781.687ZM777.547 205.9L786.387 204.132C783.762 191.008 779.435 179.375 773.247 169.405L765.587 174.16L757.927 178.914C762.779 186.731 766.424 196.258 768.706 207.668L777.547 205.9ZM765.587 174.16L773.317 169.521C767.097 159.154 759.028 150.858 749.106 144.834L744.427 152.54L739.748 160.246C746.998 164.649 753.036 170.766 757.856 178.798L765.587 174.16ZM744.427 152.54L749.106 144.834C738.86 138.613 726.9 135.704 713.607 135.704V144.72V153.736C724.234 153.736 732.82 156.04 739.748 160.246L744.427 152.54ZM713.607 144.72V135.704C692.236 135.704 674.997 145.561 662.449 164.034L669.907 169.1L677.365 174.166C686.896 160.133 698.791 153.736 713.607 153.736V144.72ZM669.907 169.1L662.449 164.034C649.884 182.532 644.331 210.038 644.331 245H653.347H662.362C662.362 211.268 667.849 188.175 677.365 174.166L669.907 169.1ZM866.291 169.1L857.899 165.803L866.291 169.1ZM881.931 147.02L876.159 140.094L876.086 140.155L876.015 140.217L881.931 147.02ZM909.531 132.76L912.165 141.382L912.239 141.36L912.312 141.336L909.531 132.76ZM965.651 127.7L965.222 136.705L965.232 136.706L965.241 136.706L965.651 127.7ZM986.811 128.62L986.435 137.628L986.811 128.62ZM1007.97 129.54L1007.56 138.546L1007.57 138.547L1007.58 138.547L1007.97 129.54ZM1057.65 130H1066.67V120.984H1057.65V130ZM1057.65 141.96L1063.59 148.745L1066.67 146.051V141.96H1057.65ZM1047.07 147.94L1043.72 139.569L1043.62 139.61L1043.52 139.653L1047.07 147.94ZM1027.29 153L1025.76 144.115L1018.28 145.406V153H1027.29ZM1027.29 337.46H1018.28V344.185L1024.72 346.102L1027.29 337.46ZM1057.65 348.5H1066.67V342.661L1061.34 340.273L1057.65 348.5ZM1057.65 360V369.016H1066.67V360H1057.65ZM958.751 360H949.735V369.016H958.751V360ZM958.751 348.5L954.026 340.822L949.735 343.462V348.5H958.751ZM971.171 342.52L974.203 351.01L974.362 350.954L974.519 350.891L971.171 342.52ZM985.891 337.46L988.435 346.109L994.906 344.206V337.46H985.891ZM985.891 259.72H994.906V249.385L984.667 250.788L985.891 259.72ZM952.311 264.32L951.087 255.388L946.804 255.975L944.58 259.681L952.311 264.32ZM930.691 303.42L938.655 307.646L938.672 307.613L938.689 307.579L930.691 303.42ZM898.031 349.42L903.403 356.66L904.164 356.096L904.791 355.385L898.031 349.42ZM883.771 360V369.016H886.75L889.143 367.24L883.771 360ZM831.791 360H822.775V369.016H831.791V360ZM831.791 348.5L828.239 340.213L822.775 342.555V348.5H831.791ZM857.551 337.46L861.102 345.747L862.792 345.023L864.063 343.695L857.551 337.46ZM892.511 294.68L885.034 289.642L892.511 294.68ZM918.271 258.8L925.375 264.35L934.637 252.495L919.815 249.918L918.271 258.8ZM897.571 252.82L893.84 261.028L893.997 261.099L894.157 261.164L897.571 252.82ZM879.171 240.86L872.796 247.235L872.983 247.422L873.181 247.598L879.171 240.86ZM866.291 222.46L858.157 226.35L866.291 222.46ZM985.891 150.24H994.906V142.505L987.262 141.329L985.891 150.24ZM970.251 148.4L969.354 157.371L969.375 157.373L969.396 157.375L970.251 148.4ZM954.611 147.48L954.465 156.494L954.538 156.496H954.611V147.48ZM915.051 160.82L908.011 155.188L907.999 155.203L907.987 155.218L915.051 160.82ZM921.031 233.5L915.041 240.238L915.14 240.326L915.241 240.411L921.031 233.5ZM985.891 247.76V256.776H994.906V247.76H985.891ZM861.231 197.62H870.246C870.246 188.176 871.771 179.805 874.682 172.397L866.291 169.1L857.899 165.803C854.063 175.568 852.215 186.211 852.215 197.62H861.231ZM866.291 169.1L874.682 172.397C877.517 165.179 881.874 159.017 887.846 153.823L881.931 147.02L876.015 140.217C867.881 147.29 861.811 155.847 857.899 165.803L866.291 169.1ZM881.931 147.02L887.702 153.946C893.972 148.722 902.043 144.475 912.165 141.382L909.531 132.76L906.896 124.138C894.938 127.792 884.61 133.052 876.159 140.094L881.931 147.02ZM909.531 132.76L912.312 141.336C922.516 138.027 935.171 136.256 950.471 136.256V127.24V118.224C933.877 118.224 919.239 120.133 906.749 124.184L909.531 132.76ZM950.471 127.24V136.256C953.94 136.256 958.836 136.401 965.222 136.705L965.651 127.7L966.08 118.695C959.585 118.385 954.361 118.224 950.471 118.224V127.24ZM965.651 127.7L965.241 136.706C972 137.014 979.065 137.321 986.435 137.628L986.811 128.62L987.186 119.612C979.836 119.306 972.794 119 966.06 118.694L965.651 127.7ZM986.811 128.62L986.435 137.628C993.785 137.934 1000.83 138.24 1007.56 138.546L1007.97 129.54L1008.38 120.534C1001.62 120.226 994.556 119.919 987.186 119.612L986.811 128.62ZM1007.97 129.54L1007.58 138.547C1014.68 138.856 1020.35 139.016 1024.53 139.016V130V120.984C1020.74 120.984 1015.37 120.837 1008.36 120.533L1007.97 129.54ZM1024.53 130V139.016H1057.65V130V120.984H1024.53V130ZM1057.65 130H1048.64V141.96H1057.65H1066.67V130H1057.65ZM1057.65 141.96L1051.71 135.175C1050.32 136.397 1047.82 137.932 1043.72 139.569L1047.07 147.94L1050.42 156.311C1055.53 154.268 1060.08 151.816 1063.59 148.745L1057.65 141.96ZM1047.07 147.94L1043.52 139.653C1040.22 141.066 1034.47 142.613 1025.76 144.115L1027.29 153L1028.82 161.885C1037.89 160.321 1045.33 158.494 1050.62 156.227L1047.07 147.94ZM1027.29 153H1018.28V337.46H1027.29H1036.31V153H1027.29ZM1027.29 337.46L1024.72 346.102C1035.76 349.385 1045.5 352.933 1053.96 356.727L1057.65 348.5L1061.34 340.273C1052.01 336.093 1041.51 332.282 1029.86 328.818L1027.29 337.46ZM1057.65 348.5H1048.64V360H1057.65H1066.67V348.5H1057.65ZM1057.65 360V350.984H958.751V360V369.016H1057.65V360ZM958.751 360H967.766V348.5H958.751H949.735V360H958.751ZM958.751 348.5L963.476 356.178C966.942 354.045 970.516 352.327 974.203 351.01L971.171 342.52L968.138 334.03C963.238 335.78 958.532 338.048 954.026 340.822L958.751 348.5ZM971.171 342.52L974.519 350.891C978.832 349.166 983.468 347.57 988.435 346.109L985.891 337.46L983.347 328.811C977.887 330.417 972.71 332.194 967.822 334.149L971.171 342.52ZM985.891 337.46H994.906V259.72H985.891H976.875V337.46H985.891ZM985.891 259.72L984.667 250.788L951.087 255.388L952.311 264.32L953.534 273.252L987.114 268.652L985.891 259.72ZM952.311 264.32L944.58 259.681C938.018 270.618 930.72 283.821 922.692 299.261L930.691 303.42L938.689 307.579C946.608 292.352 953.723 279.489 960.042 268.958L952.311 264.32ZM930.691 303.42L922.727 299.194C915.15 313.474 904.703 328.231 891.27 343.455L898.031 349.42L904.791 355.385C918.958 339.329 930.285 323.419 938.655 307.646L930.691 303.42ZM898.031 349.42L892.659 342.18L878.399 352.76L883.771 360L889.143 367.24L903.403 356.66L898.031 349.42ZM883.771 360V350.984H831.791V360V369.016H883.771V360ZM831.791 360H840.806V348.5H831.791H822.775V360H831.791ZM831.791 348.5L835.342 356.787L861.102 345.747L857.551 337.46L853.999 329.173L828.239 340.213L831.791 348.5ZM857.551 337.46L864.063 343.695C878.159 328.973 890.149 314.316 899.987 299.718L892.511 294.68L885.034 289.642C875.859 303.257 864.543 317.121 851.039 331.225L857.551 337.46ZM892.511 294.68L899.987 299.718C909.415 285.728 917.876 273.95 925.375 264.35L918.271 258.8L911.166 253.25C903.332 263.277 894.62 275.418 885.034 289.642L892.511 294.68ZM918.271 258.8L919.815 249.918C913.414 248.804 907.14 246.994 900.984 244.476L897.571 252.82L894.157 261.164C901.494 264.166 909.02 266.342 916.726 267.682L918.271 258.8ZM897.571 252.82L901.301 244.612C895.374 241.918 890.003 238.426 885.16 234.122L879.171 240.86L873.181 247.598C879.378 253.107 886.274 257.588 893.84 261.028L897.571 252.82ZM879.171 240.86L885.546 234.485C881.098 230.037 877.383 224.758 874.424 218.57L866.291 222.46L858.157 226.35C861.945 234.269 866.817 241.256 872.796 247.235L879.171 240.86ZM866.291 222.46L874.424 218.57C871.743 212.965 870.246 206.066 870.246 197.62H861.231H852.215C852.215 208.187 854.091 217.848 858.157 226.35L866.291 222.46ZM985.891 150.24L987.262 141.329C983.033 140.679 977.629 140.046 971.105 139.425L970.251 148.4L969.396 157.375C975.753 157.98 980.775 158.575 984.52 159.151L985.891 150.24ZM970.251 148.4L971.148 139.429C964.833 138.798 959.301 138.464 954.611 138.464V147.48V156.496C958.507 156.496 963.402 156.776 969.354 157.371L970.251 148.4ZM954.611 147.48L954.756 138.466C934.665 138.141 917.959 142.753 908.011 155.188L915.051 160.82L922.091 166.452C926.862 160.487 936.529 156.205 954.465 156.494L954.611 147.48ZM915.051 160.82L907.987 155.218C899.337 166.124 895.455 180.095 895.455 196.24H904.471H913.486C913.486 182.945 916.658 173.302 922.114 166.422L915.051 160.82ZM904.471 196.24H895.455C895.455 213.791 902.039 228.681 915.041 240.238L921.031 233.5L927.02 226.762C917.943 218.693 913.486 208.742 913.486 196.24H904.471ZM921.031 233.5L915.241 240.411C928.932 251.882 948.924 256.776 973.471 256.776V247.76V238.744C950.79 238.744 935.823 234.132 926.821 226.589L921.031 233.5ZM973.471 247.76V256.776H985.891V247.76V238.744H973.471V247.76ZM985.891 247.76H994.906V150.24H985.891H976.875V247.76H985.891ZM1095.04 141.04L1103.79 143.179L1103.8 143.167L1103.8 143.155L1095.04 141.04ZM1124.02 77.1L1117.02 71.4198L1117.01 71.4275L1117 71.4352L1124.02 77.1ZM1173.7 42.6L1170.81 34.0602V34.0602L1173.7 42.6ZM1243.62 32.48V41.4956H1246.68L1249.11 39.626L1243.62 32.48ZM1273.52 9.47999V0.464363H1270.45L1268.02 2.33399L1273.52 9.47999ZM1285.48 9.47999L1294.48 9.98008L1295.01 0.464363H1285.48V9.47999ZM1283.64 27.42L1292.55 28.7574L1292.56 28.7262L1292.56 28.695L1283.64 27.42ZM1279.96 45.36L1271.24 43.0656L1271.19 43.2341L1271.16 43.4042L1279.96 45.36ZM1275.82 60.08L1267.33 57.0477L1267.23 57.3226L1267.15 57.6032L1275.82 60.08ZM1272.6 69.28V78.2956H1278.17L1280.66 73.3119L1272.6 69.28ZM1200.84 73.42L1202.09 82.3478L1200.84 73.42ZM1152.08 90.44L1147.08 82.9385L1152.08 90.44ZM1122.64 127.7L1114.31 124.244L1114.28 124.311L1114.25 124.379L1122.64 127.7ZM1109.76 192.1L1100.77 191.377L1099.99 201.116H1109.76V192.1ZM1112.06 192.1V201.116H1117.82L1120.24 195.878L1112.06 192.1ZM1126.78 169.1L1119.99 163.163L1119.92 163.245L1119.85 163.328L1126.78 169.1ZM1148.4 149.78L1143.4 142.279L1143.33 142.322L1143.26 142.367L1148.4 149.78ZM1174.62 136.44L1171.51 127.975L1174.62 136.44ZM1289.16 293.3L1297.71 296.151L1297.72 296.125L1297.73 296.098L1289.16 293.3ZM1267.54 331.48L1260.79 325.502L1267.54 331.48ZM1233.04 356.78L1236.61 365.057L1236.69 365.023L1236.77 364.988L1233.04 356.78ZM1145.64 357.24L1141.85 365.42L1141.93 365.458L1142.01 365.495L1145.64 357.24ZM1113.44 332.4L1106.42 338.056L1106.45 338.104L1106.49 338.152L1113.44 332.4ZM1092.74 292.84L1084.13 295.539L1084.14 295.563L1084.15 295.588L1092.74 292.84ZM1133.68 288.7L1124.93 290.887L1124.96 291.005L1124.99 291.123L1133.68 288.7ZM1148.4 321.36L1141.06 326.6L1141.11 326.664L1141.15 326.726L1148.4 321.36ZM1169.56 339.76L1165.52 347.824L1165.71 347.915L1165.89 347.999L1169.56 339.76ZM1236.72 320.44L1228.9 315.951L1228.87 316.006L1228.84 316.062L1236.72 320.44ZM1233.04 181.06L1239.97 175.303L1233.04 181.06ZM1157.14 166.8L1153 158.789L1152.95 158.816L1152.89 158.845L1157.14 166.8ZM1133.68 186.58L1126.56 181.045L1125.25 182.725L1124.84 184.812L1133.68 186.58ZM1130 210.96L1138.96 211.956L1138.96 211.938L1138.96 211.92L1130 210.96ZM1085.38 239.48H1094.39C1094.39 200.658 1097.58 168.618 1103.79 143.179L1095.04 141.04L1086.28 138.901C1079.61 166.209 1076.36 199.796 1076.36 239.48H1085.38ZM1095.04 141.04L1103.8 143.155C1110.03 117.355 1119.22 97.3829 1131.03 82.7648L1124.02 77.1L1117 71.4352C1103.05 88.7104 1092.92 111.365 1086.27 138.925L1095.04 141.04ZM1124.02 77.1L1131.02 82.7802C1143.13 67.8567 1158.26 57.3437 1176.59 51.1397L1173.7 42.6L1170.81 34.0602C1149.27 41.3496 1131.28 53.8366 1117.02 71.4198L1124.02 77.1ZM1173.7 42.6L1176.59 51.1397C1195.38 44.7796 1217.67 41.4956 1243.62 41.4956V32.48V23.4644C1216.2 23.4644 1191.88 26.927 1170.81 34.0602L1173.7 42.6ZM1243.62 32.48L1249.11 39.626L1279.01 16.626L1273.52 9.47999L1268.02 2.33399L1238.12 25.334L1243.62 32.48ZM1273.52 9.47999V18.4956H1285.48V9.47999V0.464363H1273.52V9.47999ZM1285.48 9.47999L1276.47 8.9799C1276.18 14.2002 1275.6 19.9186 1274.71 26.145L1283.64 27.42L1292.56 28.695C1293.51 22.0414 1294.15 15.7998 1294.48 9.98008L1285.48 9.47999ZM1283.64 27.42L1274.72 26.0826C1273.85 31.903 1272.69 37.5632 1271.24 43.0656L1279.96 45.36L1288.68 47.6544C1290.29 41.5035 1291.59 35.2036 1292.55 28.7574L1283.64 27.42ZM1279.96 45.36L1271.16 43.4042C1269.99 48.642 1268.71 53.1781 1267.33 57.0477L1275.82 60.08L1284.31 63.1123C1285.99 58.3952 1287.47 53.118 1288.76 47.3158L1279.96 45.36ZM1275.82 60.08L1267.15 57.6032C1265.94 61.8321 1265.05 64.2086 1264.53 65.248L1272.6 69.28L1280.66 73.3119C1281.98 70.6714 1283.24 66.9145 1284.49 62.5568L1275.82 60.08ZM1272.6 69.28V60.2644C1244.12 60.2644 1219.76 61.655 1199.58 64.4922L1200.84 73.42L1202.09 82.3478C1221.17 79.665 1244.64 78.2956 1272.6 78.2956V69.28ZM1200.84 73.42L1199.58 64.4922C1178.98 67.3895 1161.35 73.4216 1147.08 82.9385L1152.08 90.44L1157.08 97.9414C1168.56 90.2851 1183.44 84.9704 1202.09 82.3478L1200.84 73.42ZM1152.08 90.44L1147.08 82.9385C1132.51 92.6459 1121.64 106.575 1114.31 124.244L1122.64 127.7L1130.96 131.156C1137.12 116.318 1145.88 105.407 1157.08 97.9414L1152.08 90.44ZM1122.64 127.7L1114.25 124.379C1107.36 141.781 1102.95 164.226 1100.77 191.377L1109.76 192.1L1118.74 192.823C1120.85 166.614 1125.03 146.126 1131.02 131.021L1122.64 127.7ZM1109.76 192.1V201.116H1112.06V192.1V183.084H1109.76V192.1ZM1112.06 192.1L1120.24 195.878C1123.56 188.683 1128.03 181.68 1133.7 174.872L1126.78 169.1L1119.85 163.328C1113.26 171.24 1107.91 179.57 1103.87 188.322L1112.06 192.1ZM1126.78 169.1L1133.56 175.037C1139.52 168.23 1146.17 162.287 1153.53 157.193L1148.4 149.78L1143.26 142.367C1134.68 148.313 1126.92 155.25 1119.99 163.163L1126.78 169.1ZM1148.4 149.78L1153.4 157.281C1161.09 152.15 1169.2 148.029 1177.72 144.905L1174.62 136.44L1171.51 127.975C1161.63 131.598 1152.26 136.37 1143.4 142.279L1148.4 149.78ZM1174.62 136.44L1177.72 144.905C1185.96 141.884 1194.26 140.396 1202.68 140.396V131.38V122.364C1192.08 122.364 1181.68 124.249 1171.51 127.975L1174.62 136.44ZM1202.68 131.38V140.396C1232.09 140.396 1252.66 149.147 1266.13 165.324C1279.86 181.817 1287.5 207.542 1287.5 244.08H1296.52H1305.53C1305.53 205.485 1297.53 174.86 1279.98 153.786C1262.17 132.396 1235.82 122.364 1202.68 122.364V131.38ZM1296.52 244.08H1287.5C1287.5 261.034 1285.16 276.484 1280.59 290.502L1289.16 293.3L1297.73 296.098C1302.96 280.063 1305.53 262.7 1305.53 244.08H1296.52ZM1289.16 293.3L1280.6 290.449C1276.05 304.112 1269.42 315.752 1260.79 325.502L1267.54 331.48L1274.29 337.458C1284.66 325.742 1292.45 311.928 1297.71 296.151L1289.16 293.3ZM1267.54 331.48L1260.79 325.502C1252.15 335.257 1241.69 342.944 1229.31 348.572L1233.04 356.78L1236.77 364.988C1251.37 358.349 1263.91 349.17 1274.29 337.458L1267.54 331.48ZM1233.04 356.78L1229.46 348.503C1217.25 353.776 1203.31 356.504 1187.5 356.504V365.52V374.536C1205.41 374.536 1221.83 371.438 1236.61 365.057L1233.04 356.78ZM1187.5 365.52V356.504C1173.26 356.504 1160.56 353.948 1149.26 348.985L1145.64 357.24L1142.01 365.495C1155.85 371.572 1171.06 374.536 1187.5 374.536V365.52ZM1145.64 357.24L1149.43 349.06C1138.08 343.801 1128.42 336.354 1120.38 326.648L1113.44 332.4L1106.49 338.152C1116.24 349.913 1128.05 359.025 1141.85 365.42L1145.64 357.24ZM1113.44 332.4L1120.46 326.744C1112.35 316.678 1105.94 304.51 1101.32 290.092L1092.74 292.84L1084.15 295.588C1089.35 311.836 1096.74 326.042 1106.42 338.056L1113.44 332.4ZM1092.74 292.84L1101.34 290.141C1096.76 275.539 1094.39 258.688 1094.39 239.48H1085.38H1076.36C1076.36 260.138 1078.9 278.861 1084.13 295.539L1092.74 292.84ZM1128.62 239.48H1119.6C1119.6 259.275 1121.32 276.462 1124.93 290.887L1133.68 288.7L1142.42 286.513C1139.28 273.952 1137.63 258.325 1137.63 239.48H1128.62ZM1133.68 288.7L1124.99 291.123C1128.88 305.035 1134.17 316.949 1141.06 326.6L1148.4 321.36L1155.73 316.12C1150.36 308.598 1145.84 298.738 1142.36 286.277L1133.68 288.7ZM1148.4 321.36L1141.15 326.726C1148 335.968 1156.1 343.111 1165.52 347.824L1169.56 339.76L1173.59 331.696C1167.07 328.436 1161.06 323.312 1155.64 315.994L1148.4 321.36ZM1169.56 339.76L1165.89 347.999C1175.31 352.181 1185.14 354.296 1195.32 354.296V345.28V336.264C1187.71 336.264 1180.37 334.699 1173.22 331.521L1169.56 339.76ZM1195.32 345.28V354.296C1205.91 354.296 1215.61 351.896 1224.1 346.801C1232.58 341.713 1239.37 334.234 1244.6 324.818L1236.72 320.44L1228.84 316.062C1224.87 323.206 1220.15 328.147 1214.83 331.339C1209.52 334.524 1203.12 336.264 1195.32 336.264V345.28ZM1236.72 320.44L1244.54 324.929C1255.16 306.412 1259.99 280.982 1259.99 249.6H1250.98H1241.96C1241.96 279.551 1237.28 301.348 1228.9 315.951L1236.72 320.44ZM1250.98 249.6H1259.99C1259.99 217.514 1253.92 192.11 1239.97 175.303L1233.04 181.06L1226.1 186.817C1236.07 198.836 1241.96 219.126 1241.96 249.6H1250.98ZM1233.04 181.06L1239.97 175.303C1226.07 158.542 1206.81 150.424 1183.36 150.424V159.44V168.456C1202.23 168.456 1216.09 174.751 1226.1 186.817L1233.04 181.06ZM1183.36 159.44V150.424C1173.54 150.424 1163.37 153.438 1153 158.789L1157.14 166.8L1161.27 174.811C1169.92 170.349 1177.23 168.456 1183.36 168.456V159.44ZM1157.14 166.8L1152.89 158.845C1142.57 164.351 1133.77 171.772 1126.56 181.045L1133.68 186.58L1140.79 192.115C1146.46 184.828 1153.3 179.062 1161.38 174.755L1157.14 166.8ZM1133.68 186.58L1124.84 184.812C1123.24 192.772 1121.98 201.17 1121.03 210L1130 210.96L1138.96 211.92C1139.85 203.577 1141.04 195.722 1142.52 188.348L1133.68 186.58ZM1130 210.96L1121.04 209.964C1120.07 218.653 1119.6 228.503 1119.6 239.48H1128.62H1137.63C1137.63 228.99 1138.08 219.827 1138.96 211.956L1130 210.96ZM1422.56 452V461.016H1431.58V452H1422.56ZM1320.44 452H1311.43V461.016H1320.44V452ZM1320.44 440.5L1316.6 432.342L1311.43 434.779V440.5H1320.44ZM1350.8 429.46L1352.99 438.206L1359.82 436.499V429.46H1350.8ZM1350.8 156.68H1359.82V148.691L1351.89 147.73L1350.8 156.68ZM1320.44 153H1311.43V160.989L1319.36 161.95L1320.44 153ZM1320.44 141.04L1316.83 132.78L1311.43 135.144V141.04H1320.44ZM1350.34 130.92L1352.47 139.682L1352.56 139.66L1352.65 139.635L1350.34 130.92ZM1380.7 124.48V115.464H1380L1379.31 115.572L1380.7 124.48ZM1392.2 124.48H1401.22V115.464H1392.2V124.48ZM1392.2 176H1383.19V185.016H1392.2V176ZM1392.66 176V185.016H1398.81L1401.06 179.291L1392.66 176ZM1418.42 138.74L1424.2 145.666L1424.25 145.619L1424.31 145.572L1418.42 138.74ZM1525.14 151.62L1518.21 157.38V157.38L1525.14 151.62ZM1539.86 292.38L1531.31 289.529L1531.29 289.605L1531.26 289.681L1539.86 292.38ZM1518.24 331.94L1511.49 325.962L1511.45 326.017L1511.4 326.073L1518.24 331.94ZM1484.2 356.78L1480.63 348.503L1480.59 348.518L1480.56 348.534L1484.2 356.78ZM1413.36 363.22L1415.45 354.45L1415.25 354.402L1415.05 354.364L1413.36 363.22ZM1392.2 356.32L1395.83 348.068L1383.19 342.503V356.32H1392.2ZM1392.2 429.46H1383.19V437.419L1391.09 438.406L1392.2 429.46ZM1406.92 432.68L1410.09 424.238L1409.85 424.15L1409.61 424.075L1406.92 432.68ZM1422.56 440.5H1431.58V435.444L1427.26 432.807L1422.56 440.5ZM1411.06 167.26L1404.48 161.101V161.101L1411.06 167.26ZM1392.2 206.36L1383.4 204.404L1383.19 205.37V206.36H1392.2ZM1392.2 335.16H1383.19V340.216L1387.5 342.853L1392.2 335.16ZM1410.6 342.98L1408.23 351.678L1408.46 351.74L1408.69 351.79L1410.6 342.98ZM1464.88 337.46L1460.08 329.831L1460.01 329.872L1459.95 329.914L1464.88 337.46ZM1485.58 315.38L1477.9 310.669L1477.84 310.76L1477.79 310.853L1485.58 315.38ZM1498.92 282.26L1507.68 284.396L1507.69 284.372L1507.69 284.348L1498.92 282.26ZM1500.3 205.44L1491.42 206.963L1491.44 207.111L1491.47 207.258L1500.3 205.44ZM1490.64 177.84L1482.71 182.114L1482.8 182.299L1482.91 182.478L1490.64 177.84ZM1473.16 159.44L1468.48 167.141L1468.55 167.185L1468.62 167.227L1473.16 159.44ZM1422.56 452V442.984H1320.44V452V461.016H1422.56V452ZM1320.44 452H1329.46V440.5H1320.44H1311.43V452H1320.44ZM1320.44 440.5L1324.28 448.658C1334.25 443.967 1343.82 440.5 1352.99 438.206L1350.8 429.46L1348.62 420.714C1338.16 423.327 1327.49 427.22 1316.6 432.342L1320.44 440.5ZM1350.8 429.46H1359.82V156.68H1350.8H1341.79V429.46H1350.8ZM1350.8 156.68L1351.89 147.73L1321.53 144.05L1320.44 153L1319.36 161.95L1349.72 165.63L1350.8 156.68ZM1320.44 153H1329.46V141.04H1320.44H1311.43V153H1320.44ZM1320.44 141.04L1324.06 149.3C1333.4 145.211 1342.87 142.008 1352.47 139.682L1350.34 130.92L1348.22 122.158C1337.57 124.739 1327.11 128.283 1316.83 132.78L1320.44 141.04ZM1350.34 130.92L1352.65 139.635C1362.8 136.949 1372.62 134.869 1382.1 133.388L1380.7 124.48L1379.31 115.572C1369.17 117.158 1358.74 119.371 1348.04 122.205L1350.34 130.92ZM1380.7 124.48V133.496H1392.2V124.48V115.464H1380.7V124.48ZM1392.2 124.48H1383.19V176H1392.2H1401.22V124.48H1392.2ZM1392.2 176V185.016H1392.66V176V166.984H1392.2V176ZM1392.66 176L1401.06 179.291C1406.73 164.824 1414.5 153.742 1424.2 145.666L1418.42 138.74L1412.65 131.814C1400.26 142.138 1390.86 155.896 1384.27 172.709L1392.66 176ZM1418.42 138.74L1424.31 145.572C1433.37 137.767 1445.54 133.496 1461.66 133.496V124.48V115.464C1442.21 115.464 1425.56 120.699 1412.54 131.908L1418.42 138.74ZM1461.66 124.48V133.496C1486.76 133.496 1505.18 141.692 1518.21 157.38L1525.14 151.62L1532.08 145.86C1515.06 125.361 1491.16 115.464 1461.66 115.464V124.48ZM1525.14 151.62L1518.21 157.38C1531.21 173.033 1538.67 199.859 1538.67 239.94H1547.68H1556.7C1556.7 198.448 1549.13 166.394 1532.08 145.86L1525.14 151.62ZM1547.68 239.94H1538.67C1538.67 258.454 1536.17 274.951 1531.31 289.529L1539.86 292.38L1548.42 295.231C1553.98 278.529 1556.7 260.066 1556.7 239.94H1547.68ZM1539.86 292.38L1531.26 289.681C1526.68 304.283 1520.05 316.306 1511.49 325.962L1518.24 331.94L1524.99 337.918C1535.45 326.107 1543.23 311.757 1548.47 295.079L1539.86 292.38ZM1518.24 331.94L1511.4 326.073C1503.13 335.723 1492.91 343.198 1480.63 348.503L1484.2 356.78L1487.78 365.057C1502.48 358.709 1514.96 349.624 1525.09 337.807L1518.24 331.94ZM1484.2 356.78L1480.56 348.534C1468.66 353.792 1455.2 356.504 1440.04 356.504V365.52V374.536C1457.39 374.536 1473.38 371.421 1487.85 365.026L1484.2 356.78ZM1440.04 365.52V356.504C1428.98 356.504 1420.89 355.745 1415.45 354.45L1413.36 363.22L1411.28 371.99C1418.72 373.762 1428.42 374.536 1440.04 374.536V365.52ZM1413.36 363.22L1415.05 354.364C1409.43 353.294 1403.04 351.239 1395.83 348.068L1392.2 356.32L1388.57 364.572C1396.7 368.148 1404.41 370.693 1411.68 372.076L1413.36 363.22ZM1392.2 356.32H1383.19V429.46H1392.2H1401.22V356.32H1392.2ZM1392.2 429.46L1391.09 438.406C1395.44 438.95 1399.82 439.906 1404.23 441.285L1406.92 432.68L1409.61 424.075C1404.21 422.388 1398.78 421.197 1393.32 420.514L1392.2 429.46ZM1406.92 432.68L1403.76 441.122C1408.02 442.721 1412.72 445.051 1417.86 448.193L1422.56 440.5L1427.26 432.807C1421.37 429.202 1415.64 426.319 1410.09 424.238L1406.92 432.68ZM1422.56 440.5H1413.55V452H1422.56H1431.58V440.5H1422.56ZM1446.94 153V143.984C1429.84 143.984 1415.35 149.485 1404.48 161.101L1411.06 167.26L1417.65 173.419C1424.57 166.021 1433.99 162.016 1446.94 162.016V153ZM1411.06 167.26L1404.48 161.101C1394.2 172.091 1387.33 186.736 1383.4 204.404L1392.2 206.36L1401 208.316C1404.44 192.864 1410.14 181.443 1417.65 173.419L1411.06 167.26ZM1392.2 206.36H1383.19V335.16H1392.2H1401.22V206.36H1392.2ZM1392.2 335.16L1387.5 342.853C1393.8 346.704 1400.73 349.632 1408.23 351.678L1410.6 342.98L1412.98 334.282C1406.98 332.648 1401.64 330.363 1396.9 327.467L1392.2 335.16ZM1410.6 342.98L1408.69 351.79C1416.61 353.512 1426.36 354.296 1437.74 354.296V345.28V336.264C1427.05 336.264 1418.71 335.515 1412.52 334.17L1410.6 342.98ZM1437.74 345.28V354.296C1449.5 354.296 1460.28 351.239 1469.82 345.006L1464.88 337.46L1459.95 329.914C1453.54 334.108 1446.23 336.264 1437.74 336.264V345.28ZM1464.88 337.46L1469.69 345.089C1479.35 339.007 1487.22 330.517 1493.38 319.907L1485.58 315.38L1477.79 310.853C1472.91 319.256 1466.98 325.486 1460.08 329.831L1464.88 337.46ZM1485.58 315.38L1493.27 320.091C1499.66 309.671 1504.43 297.736 1507.68 284.396L1498.92 282.26L1490.16 280.124C1487.28 291.931 1483.16 302.076 1477.9 310.669L1485.58 315.38ZM1498.92 282.26L1507.69 284.348C1510.95 270.687 1512.54 255.869 1512.54 239.94H1503.52H1494.51C1494.51 254.678 1493.03 268.073 1490.15 280.172L1498.92 282.26ZM1503.52 239.94H1512.54C1512.54 226.862 1511.42 214.743 1509.13 203.622L1500.3 205.44L1491.47 207.258C1493.48 216.991 1494.51 227.871 1494.51 239.94H1503.52ZM1500.3 205.44L1509.19 203.917C1507.2 192.315 1503.66 182.01 1498.37 173.201L1490.64 177.84L1482.91 182.478C1486.83 189.004 1489.73 197.098 1491.42 206.963L1500.3 205.44ZM1490.64 177.84L1498.58 173.566C1493.55 164.227 1486.59 156.835 1477.71 151.652L1473.16 159.44L1468.62 167.227C1474.46 170.632 1479.15 175.507 1482.71 182.114L1490.64 177.84ZM1473.16 159.44L1477.85 151.739C1469.06 146.387 1458.59 143.984 1446.94 143.984V153V162.016C1456.15 162.016 1463.16 163.907 1468.48 167.141L1473.16 159.44ZM1588.44 169.1L1580.05 165.803L1588.44 169.1ZM1604.08 147.02L1598.31 140.094L1598.23 140.155L1598.16 140.217L1604.08 147.02ZM1631.68 132.76L1634.31 141.382L1634.38 141.36L1634.46 141.336L1631.68 132.76ZM1687.8 127.7L1687.37 136.705L1687.38 136.706L1687.39 136.706L1687.8 127.7ZM1708.96 128.62L1708.58 137.628L1708.96 128.62ZM1730.12 129.54L1729.71 138.546L1729.72 138.547L1729.73 138.547L1730.12 129.54ZM1779.8 130H1788.81V120.984H1779.8V130ZM1779.8 141.96L1785.73 148.745L1788.81 146.051V141.96H1779.8ZM1769.22 147.94L1765.87 139.569L1765.77 139.61L1765.67 139.653L1769.22 147.94ZM1749.44 153L1747.9 144.115L1740.42 145.406V153H1749.44ZM1749.44 337.46H1740.42V344.185L1746.87 346.102L1749.44 337.46ZM1779.8 348.5H1788.81V342.661L1783.48 340.273L1779.8 348.5ZM1779.8 360V369.016H1788.81V360H1779.8ZM1680.9 360H1671.88V369.016H1680.9V360ZM1680.9 348.5L1676.17 340.822L1671.88 343.462V348.5H1680.9ZM1693.32 342.52L1696.35 351.01L1696.51 350.954L1696.67 350.891L1693.32 342.52ZM1708.04 337.46L1710.58 346.109L1717.05 344.206V337.46H1708.04ZM1708.04 259.72H1717.05V249.385L1706.81 250.788L1708.04 259.72ZM1674.46 264.32L1673.23 255.388L1668.95 255.975L1666.73 259.681L1674.46 264.32ZM1652.84 303.42L1660.8 307.646L1660.82 307.613L1660.84 307.579L1652.84 303.42ZM1620.18 349.42L1625.55 356.66L1626.31 356.096L1626.94 355.385L1620.18 349.42ZM1605.92 360V369.016H1608.9L1611.29 367.24L1605.92 360ZM1553.94 360H1544.92V369.016H1553.94V360ZM1553.94 348.5L1550.39 340.213L1544.92 342.555V348.5H1553.94ZM1579.7 337.46L1583.25 345.747L1584.94 345.023L1586.21 343.695L1579.7 337.46ZM1614.66 294.68L1607.18 289.642L1614.66 294.68ZM1640.42 258.8L1647.52 264.35L1656.78 252.495L1641.96 249.918L1640.42 258.8ZM1619.72 252.82L1615.99 261.028L1616.14 261.099L1616.3 261.164L1619.72 252.82ZM1601.32 240.86L1594.94 247.235L1595.13 247.422L1595.33 247.598L1601.32 240.86ZM1588.44 222.46L1580.3 226.35L1588.44 222.46ZM1708.04 150.24H1717.05V142.505L1709.41 141.329L1708.04 150.24ZM1692.4 148.4L1691.5 157.371L1691.52 157.373L1691.54 157.375L1692.4 148.4ZM1676.76 147.48L1676.61 156.494L1676.68 156.496H1676.76V147.48ZM1637.2 160.82L1630.16 155.188L1630.14 155.203L1630.13 155.218L1637.2 160.82ZM1643.18 233.5L1637.19 240.238L1637.29 240.326L1637.39 240.411L1643.18 233.5ZM1708.04 247.76V256.776H1717.05V247.76H1708.04ZM1583.38 197.62H1592.39C1592.39 188.176 1593.92 179.805 1596.83 172.397L1588.44 169.1L1580.05 165.803C1576.21 175.568 1574.36 186.211 1574.36 197.62H1583.38ZM1588.44 169.1L1596.83 172.397C1599.66 165.179 1604.02 159.017 1609.99 153.823L1604.08 147.02L1598.16 140.217C1590.03 147.29 1583.96 155.847 1580.05 165.803L1588.44 169.1ZM1604.08 147.02L1609.85 153.946C1616.12 148.722 1624.19 144.475 1634.31 141.382L1631.68 132.76L1629.04 124.138C1617.08 127.792 1606.76 133.052 1598.31 140.094L1604.08 147.02ZM1631.68 132.76L1634.46 141.336C1644.66 138.027 1657.32 136.256 1672.62 136.256V127.24V118.224C1656.02 118.224 1641.39 120.133 1628.9 124.184L1631.68 132.76ZM1672.62 127.24V136.256C1676.09 136.256 1680.98 136.401 1687.37 136.705L1687.8 127.7L1688.23 118.695C1681.73 118.385 1676.51 118.224 1672.62 118.224V127.24ZM1687.8 127.7L1687.39 136.706C1694.15 137.014 1701.21 137.321 1708.58 137.628L1708.96 128.62L1709.33 119.612C1701.98 119.306 1694.94 119 1688.21 118.694L1687.8 127.7ZM1708.96 128.62L1708.58 137.628C1715.93 137.934 1722.97 138.24 1729.71 138.546L1730.12 129.54L1730.53 120.534C1723.77 120.226 1716.7 119.919 1709.33 119.612L1708.96 128.62ZM1730.12 129.54L1729.73 138.547C1736.83 138.856 1742.5 139.016 1746.68 139.016V130V120.984C1742.88 120.984 1737.51 120.837 1730.51 120.533L1730.12 129.54ZM1746.68 130V139.016H1779.8V130V120.984H1746.68V130ZM1779.8 130H1770.78V141.96H1779.8H1788.81V130H1779.8ZM1779.8 141.96L1773.86 135.175C1772.46 136.397 1769.96 137.932 1765.87 139.569L1769.22 147.94L1772.57 156.311C1777.67 154.268 1782.22 151.816 1785.73 148.745L1779.8 141.96ZM1769.22 147.94L1765.67 139.653C1762.37 141.066 1756.62 142.613 1747.9 144.115L1749.44 153L1750.97 161.885C1760.04 160.321 1767.48 158.494 1772.77 156.227L1769.22 147.94ZM1749.44 153H1740.42V337.46H1749.44H1758.45V153H1749.44ZM1749.44 337.46L1746.87 346.102C1757.91 349.385 1767.65 352.933 1776.11 356.727L1779.8 348.5L1783.48 340.273C1774.16 336.093 1763.66 332.282 1752.01 328.818L1749.44 337.46ZM1779.8 348.5H1770.78V360H1779.8H1788.81V348.5H1779.8ZM1779.8 360V350.984H1680.9V360V369.016H1779.8V360ZM1680.9 360H1689.91V348.5H1680.9H1671.88V360H1680.9ZM1680.9 348.5L1685.62 356.178C1689.09 354.045 1692.66 352.327 1696.35 351.01L1693.32 342.52L1690.28 334.03C1685.38 335.78 1680.68 338.048 1676.17 340.822L1680.9 348.5ZM1693.32 342.52L1696.67 350.891C1700.98 349.166 1705.61 347.57 1710.58 346.109L1708.04 337.46L1705.49 328.811C1700.03 330.417 1694.86 332.194 1689.97 334.149L1693.32 342.52ZM1708.04 337.46H1717.05V259.72H1708.04H1699.02V337.46H1708.04ZM1708.04 259.72L1706.81 250.788L1673.23 255.388L1674.46 264.32L1675.68 273.252L1709.26 268.652L1708.04 259.72ZM1674.46 264.32L1666.73 259.681C1660.16 270.618 1652.87 283.821 1644.84 299.261L1652.84 303.42L1660.84 307.579C1668.75 292.352 1675.87 279.489 1682.19 268.958L1674.46 264.32ZM1652.84 303.42L1644.87 299.194C1637.3 313.474 1626.85 328.231 1613.42 343.455L1620.18 349.42L1626.94 355.385C1641.1 339.329 1652.43 323.419 1660.8 307.646L1652.84 303.42ZM1620.18 349.42L1614.8 342.18L1600.54 352.76L1605.92 360L1611.29 367.24L1625.55 356.66L1620.18 349.42ZM1605.92 360V350.984H1553.94V360V369.016H1605.92V360ZM1553.94 360H1562.95V348.5H1553.94H1544.92V360H1553.94ZM1553.94 348.5L1557.49 356.787L1583.25 345.747L1579.7 337.46L1576.15 329.173L1550.39 340.213L1553.94 348.5ZM1579.7 337.46L1586.21 343.695C1600.3 328.973 1612.3 314.316 1622.13 299.718L1614.66 294.68L1607.18 289.642C1598 303.257 1586.69 317.121 1573.18 331.225L1579.7 337.46ZM1614.66 294.68L1622.13 299.718C1631.56 285.728 1640.02 273.95 1647.52 264.35L1640.42 258.8L1633.31 253.25C1625.48 263.277 1616.77 275.418 1607.18 289.642L1614.66 294.68ZM1640.42 258.8L1641.96 249.918C1635.56 248.804 1629.29 246.994 1623.13 244.476L1619.72 252.82L1616.3 261.164C1623.64 264.166 1631.17 266.342 1638.87 267.682L1640.42 258.8ZM1619.72 252.82L1623.45 244.612C1617.52 241.918 1612.15 238.426 1607.31 234.122L1601.32 240.86L1595.33 247.598C1601.52 253.107 1608.42 257.588 1615.99 261.028L1619.72 252.82ZM1601.32 240.86L1607.69 234.485C1603.24 230.037 1599.53 224.758 1596.57 218.57L1588.44 222.46L1580.3 226.35C1584.09 234.269 1588.96 241.256 1594.94 247.235L1601.32 240.86ZM1588.44 222.46L1596.57 218.57C1593.89 212.965 1592.39 206.066 1592.39 197.62H1583.38H1574.36C1574.36 208.187 1576.24 217.848 1580.3 226.35L1588.44 222.46ZM1708.04 150.24L1709.41 141.329C1705.18 140.679 1699.77 140.046 1693.25 139.425L1692.4 148.4L1691.54 157.375C1697.9 157.98 1702.92 158.575 1706.67 159.151L1708.04 150.24ZM1692.4 148.4L1693.29 139.429C1686.98 138.798 1681.45 138.464 1676.76 138.464V147.48V156.496C1680.65 156.496 1685.55 156.776 1691.5 157.371L1692.4 148.4ZM1676.76 147.48L1676.9 138.466C1656.81 138.141 1640.1 142.753 1630.16 155.188L1637.2 160.82L1644.24 166.452C1649.01 160.487 1658.68 156.205 1676.61 156.494L1676.76 147.48ZM1637.2 160.82L1630.13 155.218C1621.48 166.124 1617.6 180.095 1617.6 196.24H1626.62H1635.63C1635.63 182.945 1638.8 173.302 1644.26 166.422L1637.2 160.82ZM1626.62 196.24H1617.6C1617.6 213.791 1624.18 228.681 1637.19 240.238L1643.18 233.5L1649.17 226.762C1640.09 218.693 1635.63 208.742 1635.63 196.24H1626.62ZM1643.18 233.5L1637.39 240.411C1651.08 251.882 1671.07 256.776 1695.62 256.776V247.76V238.744C1672.94 238.744 1657.97 234.132 1648.97 226.589L1643.18 233.5ZM1695.62 247.76V256.776H1708.04V247.76V238.744H1695.62V247.76ZM1708.04 247.76H1717.05V150.24H1708.04H1699.02V247.76H1708.04Z" fill="#6B7D85" mask="url(#path-1-outside-1_254_1432)"/>
</g>
</svg>
