<svg width="91" height="88" viewBox="0 0 91 88" fill="none" xmlns="http://www.w3.org/2000/svg">
<path fill-rule="evenodd" clip-rule="evenodd" d="M11.1124 54.7731H12.7195L11.916 48.8324L11.1124 54.7731ZM7.13279 59.9995L9.99136 44.7716H13.8031L16.6243 60H13.5417L13.037 56.7849H10.8136L10.2907 59.9995H7.13279ZM21.501 51.1825H22.6221C23.0332 51.1825 23.3444 51.1072 23.5566 50.9566C23.7678 50.806 23.9084 50.5811 23.9768 50.2799C24.0452 49.9792 24.0794 49.5967 24.0794 49.1336C24.0794 48.7447 24.0516 48.4031 23.9955 48.1089C23.9394 47.8141 23.8052 47.5796 23.5935 47.4042C23.3818 47.2283 23.0519 47.1406 22.6034 47.1406H21.501V51.1825ZM18.1565 59.9995V44.7716H23.2385C24.1473 44.7716 24.8953 44.9438 25.4807 45.2886C26.0661 45.6334 26.5018 46.1347 26.7889 46.7926C27.0749 47.4505 27.2187 48.2498 27.2187 49.1895C27.2187 50.3676 27.0252 51.267 26.6392 51.8877C26.2532 52.5079 25.7298 52.9372 25.0695 53.1755C24.4093 53.4132 23.6689 53.5327 22.8461 53.5327H21.501V59.9995H18.1565ZM28.7696 59.9995L29.031 44.7716H32.6183L34.2809 53.6262L36.0751 44.7716H39.5313L39.7933 59.9995H37.4201L37.14 49.8668L35.3838 59.9995H33.2721L31.4036 49.7915L31.1796 59.9995H28.7696ZM41.9788 59.9995V44.7716H48.7801V47.0653H45.3233V50.8442H47.9579V53.1755H45.3233V57.7246H48.8175V59.9995H41.9788ZM50.3866 59.9995V44.7716H53.7311V50.9383H56.0669V44.7716H59.4301V59.9995H56.0669V53.3444H53.7311V59.9995H50.3866ZM61.784 59.9995V44.7716H64.4186V53.495L68.2859 44.7716H70.4533V59.9995H67.7631V51.126L63.8203 59.9995H61.784ZM77.9458 51.615H78.4318V47.0841H77.9084C77.2236 47.0841 76.7093 47.2756 76.3671 47.6576C76.0245 48.0395 75.8534 48.6005 75.8534 49.3401C75.8534 49.9921 76.0031 50.5343 76.3019 50.9663C76.6008 51.3987 77.1487 51.615 77.9458 51.615ZM71.8176 59.9995L74.6949 53.2314C74.1218 52.8807 73.6513 52.367 73.284 51.6903C72.9168 51.0131 72.7334 50.2239 72.7334 49.3213C72.7334 48.1433 72.9387 47.2251 73.3493 46.5672C73.7609 45.9093 74.349 45.4456 75.1151 45.1761C75.8812 44.9067 76.7996 44.7716 77.871 44.7716H81.7576V60H78.4318V53.9829H77.6283L75.4236 59.9989L71.8176 59.9995ZM10.5848 41.4936V37.5211H9.70213V36.6491H12.7173V37.5211H11.8342V41.4936H10.5848ZM16.9071 38.5351H17.6652V38.0574C17.6652 37.9175 17.6513 37.8046 17.6235 37.718C17.5957 37.6314 17.5529 37.57 17.4946 37.5335C17.4358 37.4974 17.3626 37.4791 17.2738 37.4791C17.1904 37.4791 17.1225 37.4985 17.0696 37.5378C17.0167 37.577 16.9766 37.6453 16.9488 37.7432C16.921 37.8406 16.9071 37.9794 16.9071 38.1574V38.5351ZM17.2819 41.5775C16.9269 41.5775 16.6296 41.5113 16.3907 41.3801C16.1517 41.2494 15.9715 41.0563 15.8496 40.8018C15.7272 40.5479 15.6663 40.2424 15.6663 39.8841V38.2586C15.6663 37.8896 15.7272 37.5808 15.8496 37.3323C15.9715 37.0838 16.1544 36.8939 16.3992 36.7621C16.6435 36.6314 16.9376 36.5658 17.2819 36.5658C17.6486 36.5658 17.9453 36.6325 18.1731 36.7664C18.4008 36.9009 18.5687 37.0961 18.6772 37.3533C18.7857 37.6104 18.8397 37.9234 18.8397 38.2919V39.1386H16.9071V40.0773C16.9071 40.2171 16.9226 40.3312 16.9531 40.4204C16.9835 40.5103 17.0263 40.5732 17.0819 40.6093C17.1375 40.6458 17.207 40.6636 17.2904 40.6636C17.3679 40.6636 17.4364 40.6458 17.4946 40.6098C17.5529 40.5732 17.5962 40.5157 17.6235 40.4377C17.6513 40.3591 17.6652 40.2558 17.6652 40.1273V39.6663H18.8312V40.0687C18.8312 40.5603 18.698 40.9347 18.4313 41.1918C18.165 41.4489 17.7817 41.5775 17.2819 41.5775ZM22.1794 41.4936V36.6491H25.4614V41.4936H24.204V37.5292H23.4374V41.4936H22.1794ZM28.5852 41.5436V40.6388C28.7573 40.6388 28.8984 40.6093 29.0096 40.5506C29.1208 40.4915 29.2096 40.3914 29.2769 40.2489C29.3432 40.1063 29.3946 39.9137 29.4304 39.6706C29.4667 39.4275 29.4983 39.1165 29.5266 38.7362L29.6763 36.6491H32.6167V41.4936H31.3587V37.5211H30.7423L30.6343 38.9541C30.6006 39.4683 30.5493 39.8928 30.4798 40.2279C30.4103 40.563 30.3093 40.826 30.1762 41.0159C30.0425 41.2058 29.865 41.3414 29.6431 41.422C29.4207 41.5027 29.1353 41.5436 28.7851 41.5436H28.5852ZM37.5976 40.7222C37.703 40.7222 37.7837 40.6932 37.8393 40.6345C37.8943 40.5754 37.9302 40.4947 37.9473 40.3914C37.9638 40.2881 37.9724 40.1692 37.9724 40.0353V38.116C37.9724 37.9762 37.9638 37.8562 37.9473 37.7556C37.9307 37.655 37.8943 37.5738 37.8393 37.5125C37.7837 37.4512 37.703 37.4205 37.5976 37.4205C37.4918 37.4205 37.4116 37.4512 37.356 37.5125C37.3004 37.5738 37.263 37.655 37.2437 37.7556C37.2239 37.8562 37.2143 37.9762 37.2143 38.116V40.0353C37.2143 40.1698 37.2239 40.2881 37.2432 40.3914C37.263 40.4947 37.3004 40.5759 37.3555 40.6345C37.4116 40.6932 37.4918 40.7222 37.5976 40.7222ZM37.5891 41.5775C37.2448 41.5775 36.9502 41.5146 36.7064 41.3887C36.4616 41.2628 36.2771 41.0799 36.1526 40.84C36.0275 40.5996 35.9649 40.3005 35.9649 39.9428V38.1999C35.9649 37.8422 36.0275 37.5437 36.152 37.3032C36.2771 37.0628 36.4621 36.8799 36.7064 36.754C36.9502 36.6281 37.2448 36.5658 37.5891 36.5658C37.9334 36.5658 38.2274 36.6281 38.4723 36.754C38.7166 36.8799 38.9021 37.0628 39.0304 37.3027C39.1576 37.5431 39.2218 37.8422 39.2218 38.1999V39.9428C39.2218 40.3005 39.1576 40.5996 39.0304 40.84C38.9021 41.0799 38.7166 41.2628 38.4723 41.3887C38.2274 41.5146 37.9334 41.5775 37.5891 41.5775ZM42.2284 41.4936L43.2613 38.8616L42.2701 36.6491H43.5281L44.0862 37.8896L44.5775 36.6491H45.5853L44.6026 39.038L45.6938 41.4936H44.4278L43.8114 40.0939L43.2864 41.4936H42.2284ZM50.2749 40.7222C50.3802 40.7222 50.4609 40.6932 50.5165 40.6345C50.5721 40.5754 50.6079 40.4947 50.6251 40.3914C50.6411 40.2881 50.6496 40.1692 50.6496 40.0353V38.116C50.6496 37.9762 50.6416 37.8562 50.6251 37.7556C50.6079 37.655 50.5716 37.5738 50.5165 37.5125C50.4609 37.4512 50.3802 37.4205 50.2749 37.4205C50.1696 37.4205 50.0888 37.4512 50.0332 37.5125C49.9776 37.5738 49.9402 37.655 49.921 37.7556C49.9017 37.8562 49.8921 37.9762 49.8921 38.116V40.0353C49.8921 40.1698 49.9017 40.2881 49.921 40.3914C49.9402 40.4947 49.9776 40.5759 50.0332 40.6345C50.0888 40.6932 50.1696 40.7222 50.2749 40.7222ZM50.2669 41.5775C49.922 41.5775 49.628 41.5146 49.3837 41.3887C49.1394 41.2628 48.9549 41.0799 48.8298 40.84C48.7047 40.5996 48.6427 40.3005 48.6427 39.9428V38.1999C48.6427 37.8422 48.7047 37.5437 48.8298 37.3032C48.9549 37.0628 49.1394 36.8799 49.3837 36.754C49.628 36.6281 49.922 36.5658 50.2669 36.5658C50.6111 36.5658 50.9052 36.6281 51.1495 36.754C51.3938 36.8799 51.5799 37.0628 51.7076 37.3027C51.8354 37.5431 51.899 37.8422 51.899 38.1999V39.9428C51.899 40.3005 51.8354 40.5996 51.7076 40.84C51.5799 41.0799 51.3938 41.2628 51.1495 41.3887C50.9052 41.5146 50.6111 41.5775 50.2669 41.5775ZM56.2556 40.6975H57.5884V37.4286H57.1388L57.0554 38.3253C57.0388 38.6889 57.0078 39.0014 56.9634 39.2639C56.919 39.527 56.8618 39.7502 56.7929 39.9347C56.7234 40.1192 56.6432 40.2714 56.5512 40.3914C56.4598 40.5114 56.3609 40.6136 56.2556 40.6975ZM54.9228 42.7927V40.7141C55.1008 40.6189 55.2559 40.499 55.3895 40.3537C55.5226 40.2085 55.6376 40.0283 55.7349 39.8131C55.8322 39.598 55.9097 39.3435 55.968 39.0504C56.0268 38.7572 56.0642 38.4151 56.0802 38.0235L56.1973 36.6491H58.7463V40.6975H59.421V42.7927H58.5127L58.4213 41.4936H55.914L55.8391 42.7927H54.9228ZM84.1992 59.9995V44.7711H91C90.4039 48.3224 89.4486 51.8038 88.1505 55.1604L86.2794 59.9989L84.1992 59.9995ZM4.53672 59.4056L2.73828 54.7548C1.49103 51.53 0.573104 48.1847 0 44.7716H7.19587L4.55489 59.4056H4.53672ZM46.3519 33.6519H51.9696V30.157H46.3519V33.6519ZM36.9219 33.6519H42.5396V30.157H36.9219V33.6519ZM46.3519 29.1302H51.9696V28H46.3519V29.1302ZM36.9219 29.1302H42.5396V28H36.9219V29.1302Z" fill="white"/>
</svg>
