<svg width="22" height="24" viewBox="0 0 22 24" fill="none" xmlns="http://www.w3.org/2000/svg">
<path d="M13.2475 2.49466C13.1529 2.44834 13.0473 2.4295 12.9425 2.44027C12.8378 2.45104 12.7382 2.491 12.655 2.5556L6.05688 7.68747H1.75C1.4019 7.68747 1.06806 7.82575 0.821922 8.07189C0.575781 8.31804 0.4375 8.65187 0.4375 8.99997V15C0.4375 15.3481 0.575781 15.6819 0.821922 15.928C1.06806 16.1742 1.4019 16.3125 1.75 16.3125H6.05688L12.655 21.4443C12.7381 21.5089 12.8377 21.5489 12.9425 21.5596C13.0472 21.5704 13.1528 21.5516 13.2474 21.5053C13.3419 21.459 13.4216 21.3871 13.4773 21.2977C13.533 21.2084 13.5625 21.1052 13.5625 21V2.99997C13.5625 2.89471 13.533 2.79154 13.4773 2.70222C13.4217 2.61289 13.342 2.54098 13.2475 2.49466ZM12.4375 19.8497L6.595 15.3056C6.49631 15.229 6.37493 15.1874 6.25 15.1875H1.75C1.70027 15.1875 1.65258 15.1677 1.61742 15.1326C1.58225 15.0974 1.5625 15.0497 1.5625 15V8.99997C1.5625 8.95024 1.58225 8.90255 1.61742 8.86739C1.65258 8.83223 1.70027 8.81247 1.75 8.81247H6.25C6.37493 8.8125 6.49631 8.77094 6.595 8.69435L12.4375 4.15028V19.8497ZM17.3125 9.74997V14.25C17.3125 14.3992 17.2532 14.5422 17.1477 14.6477C17.0423 14.7532 16.8992 14.8125 16.75 14.8125C16.6008 14.8125 16.4577 14.7532 16.3523 14.6477C16.2468 14.5422 16.1875 14.3992 16.1875 14.25V9.74997C16.1875 9.60079 16.2468 9.45771 16.3523 9.35222C16.4577 9.24674 16.6008 9.18747 16.75 9.18747C16.8992 9.18747 17.0423 9.24674 17.1477 9.35222C17.2532 9.45771 17.3125 9.60079 17.3125 9.74997ZM20.3125 8.24997V15.75C20.3125 15.8992 20.2532 16.0422 20.1477 16.1477C20.0423 16.2532 19.8992 16.3125 19.75 16.3125C19.6008 16.3125 19.4577 16.2532 19.3523 16.1477C19.2468 16.0422 19.1875 15.8992 19.1875 15.75V8.24997C19.1875 8.10079 19.2468 7.95771 19.3523 7.85222C19.4577 7.74674 19.6008 7.68747 19.75 7.68747C19.8992 7.68747 20.0423 7.74674 20.1477 7.85222C20.2532 7.95771 20.3125 8.10079 20.3125 8.24997Z" fill="url(#paint0_linear_1146_4646)"/>
<defs>
<linearGradient id="paint0_linear_1146_4646" x1="10.375" y1="2.43732" x2="10.375" y2="21.5626" gradientUnits="userSpaceOnUse">
<stop stop-color="#F7F8F8"/>
<stop offset="1" stop-color="#F7F8F8" stop-opacity="0.5"/>
</linearGradient>
</defs>
</svg>
