<svg width="24" height="24" viewBox="0 0 24 24" fill="none" xmlns="http://www.w3.org/2000/svg">
<path d="M18.1875 14.25V9.74998C18.1875 9.60079 18.2468 9.45772 18.3523 9.35223C18.4577 9.24674 18.6008 9.18748 18.75 9.18748C18.8992 9.18748 19.0423 9.24674 19.1477 9.35223C19.2532 9.45772 19.3125 9.60079 19.3125 9.74998V14.25C19.3125 14.3992 19.2532 14.5422 19.1477 14.6477C19.0423 14.7532 18.8992 14.8125 18.75 14.8125C18.6008 14.8125 18.4577 14.7532 18.3523 14.6477C18.2468 14.5422 18.1875 14.3992 18.1875 14.25ZM21.75 7.68748C21.6008 7.68748 21.4577 7.74674 21.3523 7.85223C21.2468 7.95772 21.1875 8.10079 21.1875 8.24998V15.75C21.1875 15.8992 21.2468 16.0422 21.3523 16.1477C21.4577 16.2532 21.6008 16.3125 21.75 16.3125C21.8992 16.3125 22.0423 16.2532 22.1477 16.1477C22.2532 16.0422 22.3125 15.8992 22.3125 15.75V8.24998C22.3125 8.10079 22.2532 7.95772 22.1477 7.85223C22.0423 7.74674 21.8992 7.68748 21.75 7.68748ZM20.6663 19.875C20.716 19.9296 20.7545 19.9936 20.7795 20.0631C20.8045 20.1326 20.8156 20.2064 20.8121 20.2802C20.8087 20.3541 20.7907 20.4265 20.7592 20.4933C20.7277 20.5602 20.6834 20.6202 20.6287 20.67C20.5741 20.7197 20.5102 20.7582 20.4406 20.7832C20.3711 20.8083 20.2973 20.8194 20.2235 20.8159C20.1497 20.8124 20.0772 20.7944 20.0104 20.7629C19.9435 20.7315 19.8835 20.6871 19.8337 20.6325L15.5625 15.93V21C15.5625 21.1052 15.533 21.2084 15.4773 21.2977C15.4216 21.3871 15.3419 21.459 15.2474 21.5053C15.1528 21.5516 15.0472 21.5704 14.9425 21.5596C14.8377 21.5489 14.7381 21.5089 14.655 21.4444L8.05688 16.3125H3.75C3.4019 16.3125 3.06806 16.1742 2.82192 15.9281C2.57578 15.6819 2.4375 15.3481 2.4375 15V8.99998C2.4375 8.65188 2.57578 8.31804 2.82192 8.0719C3.06806 7.82576 3.4019 7.68748 3.75 7.68748H8.06906L4.83375 4.12498C4.74939 4.01262 4.71014 3.87276 4.72371 3.73292C4.73728 3.59308 4.8027 3.46338 4.90708 3.36934C5.01147 3.2753 5.14727 3.22372 5.28776 3.22477C5.42826 3.22581 5.56327 3.2794 5.66625 3.37498L20.6663 19.875ZM14.4375 14.6925L9.09375 8.81248H3.75C3.70027 8.81248 3.65258 8.83223 3.61742 8.86739C3.58225 8.90256 3.5625 8.95025 3.5625 8.99998V15C3.5625 15.0497 3.58225 15.0974 3.61742 15.1326C3.65258 15.1677 3.70027 15.1875 3.75 15.1875H8.25C8.37493 15.1874 8.49631 15.229 8.595 15.3056L14.4375 19.8497V14.6925ZM11.6091 6.34873L14.4375 4.15029V10.0153C14.4375 10.1645 14.4968 10.3075 14.6023 10.413C14.7077 10.5185 14.8508 10.5778 15 10.5778C15.1492 10.5778 15.2923 10.5185 15.3977 10.413C15.5032 10.3075 15.5625 10.1645 15.5625 10.0153V2.99998C15.5625 2.8947 15.533 2.79154 15.4773 2.70221C15.4216 2.61289 15.3419 2.54099 15.2474 2.49469C15.1528 2.4484 15.0472 2.42956 14.9425 2.44033C14.8377 2.4511 14.7381 2.49103 14.655 2.5556L10.9191 5.46185C10.8581 5.50618 10.8066 5.56231 10.7678 5.62691C10.7289 5.69152 10.7034 5.76328 10.6928 5.83792C10.6822 5.91257 10.6868 5.98858 10.7061 6.06145C10.7255 6.13431 10.7593 6.20253 10.8056 6.26206C10.8519 6.32159 10.9096 6.37121 10.9755 6.40797C11.0413 6.44474 11.1138 6.46789 11.1888 6.47607C11.2637 6.48424 11.3396 6.47726 11.4118 6.45555C11.484 6.43383 11.5511 6.39782 11.6091 6.34966V6.34873Z" fill="black"/>
</svg>
